<?xml version="1.0" encoding="iso-8859-1"?>
<svg version="1.1" id="Capa_1" xmlns="http://www.w3.org/2000/svg" fill="black" xmlns:xlink="http://www.w3.org/1999/xlink" x="0px" y="0px"
	 viewBox="0 0 432.903 432.903" style="enable-background:new 0 0 432.903 432.903;" xml:space="preserve">
<path d="M429.566,145.561c-11.573-35.467-49.839-54.906-85.303-43.337c-14.689,4.787-27.397,14.553-35.784,27.498
	c-5.843,9.019-9.433,19.318-10.537,29.896c-10.016-6.628-21.967-10.394-34.632-10.394c-6.559,0-13.074,1.034-19.366,3.075
	c-0.119,0.038-0.236,0.08-0.352,0.126l-91.255,36.018c-13.391,5.278-24.281,15.296-30.662,28.206
	c-6.967,14.096-19.954,25.112-35.631,30.226l-62.409,20.355c-8.695,2.837-15.764,8.888-19.905,17.039
	c-4.142,8.15-4.86,17.428-2.024,26.12c4.605,14.136,17.684,23.633,32.545,23.633c3.587,0,7.156-0.568,10.616-1.691l238.867-77.907
	l18.236,56.728c4.397,13.68,17.006,22.871,31.375,22.871h20.556c11.249,0,20.4-9.151,20.4-20.4c0-11.737-8.444-21.539-19.577-23.648
	l-20.676-63.399c9.642,5.011,20.341,7.629,31.185,7.629c7.019,0,14.098-1.094,20.986-3.337
	C421.682,219.294,441.127,181.026,429.566,145.561z M362.302,313.621c0,4.632-3.769,8.4-8.4,8.4h-20.556
	c-9.137,0-17.155-5.845-19.952-14.543l-25.936-80.513c-1.023-3.151-4.407-4.881-7.559-3.855c-3.152,1.022-4.878,4.406-3.856,7.559
	l4.001,12.336l-238.89,77.914c-2.253,0.731-4.576,1.103-6.903,1.103c-9.651,0-18.145-6.169-21.136-15.353
	c-1.843-5.646-1.376-11.672,1.313-16.965c2.689-5.294,7.281-9.224,12.928-11.066l62.408-20.355
	c18.727-6.107,34.279-19.345,42.668-36.316c5.059-10.234,13.69-18.176,24.307-22.36l91.079-35.948
	c5.041-1.614,10.252-2.434,15.492-2.434c22.054,0,41.444,14.104,48.254,35.105l30.402,93.224h-0.672c-3.313,0-6,2.687-6,6
	s2.687,6,6,6c0,0,12.096,0.319,13.505,0.897C359.197,304.254,362.302,308.582,362.302,313.621z M382.501,219.457
	c-19.005,6.191-39.767,1.734-54.558-11.607l-4.967-15.232c-2.831-8.729-7.427-16.488-13.311-22.952
	c-1.406-24.899,14.434-48.251,38.318-56.034c29.172-9.516,60.654,6.474,70.174,35.648
	C427.668,178.457,411.671,209.938,382.501,219.457z"/>
<g>
</g>
<g>
</g>
<g>
</g>
<g>
</g>
<g>
</g>
<g>
</g>
<g>
</g>
<g>
</g>
<g>
</g>
<g>
</g>
<g>
</g>
<g>
</g>
<g>
</g>
<g>
</g>
<g>
</g>
</svg>
